<mxfile host="app.diagrams.net" modified="2023-11-22T19:04:10.199Z" agent="Mozilla/5.0 (Windows NT 10.0; Win64; x64) AppleWebKit/537.36 (KHTML, like Gecko) Chrome/119.0.0.0 Safari/537.36" etag="Mo08EMx2CWcxzQAegffv" version="22.1.3" type="device">
  <diagram name="Page-1" id="jsQXB0aGKOMTe1d7dtG2">
    <mxGraphModel dx="1290" dy="542" grid="1" gridSize="10" guides="1" tooltips="1" connect="1" arrows="1" fold="1" page="1" pageScale="1" pageWidth="850" pageHeight="1100" math="0" shadow="0">
      <root>
        <mxCell id="0" />
        <mxCell id="1" parent="0" />
        <mxCell id="M9ySGyYGYbUEq0l-4iJ8-6" style="edgeStyle=orthogonalEdgeStyle;rounded=0;orthogonalLoop=1;jettySize=auto;html=1;entryX=1;entryY=0.5;entryDx=0;entryDy=0;" edge="1" parent="1" source="M9ySGyYGYbUEq0l-4iJ8-1" target="M9ySGyYGYbUEq0l-4iJ8-4">
          <mxGeometry relative="1" as="geometry" />
        </mxCell>
        <mxCell id="M9ySGyYGYbUEq0l-4iJ8-8" style="edgeStyle=orthogonalEdgeStyle;rounded=0;orthogonalLoop=1;jettySize=auto;html=1;entryX=1;entryY=0.5;entryDx=0;entryDy=0;" edge="1" parent="1" source="M9ySGyYGYbUEq0l-4iJ8-1" target="M9ySGyYGYbUEq0l-4iJ8-7">
          <mxGeometry relative="1" as="geometry" />
        </mxCell>
        <mxCell id="M9ySGyYGYbUEq0l-4iJ8-10" style="edgeStyle=orthogonalEdgeStyle;rounded=0;orthogonalLoop=1;jettySize=auto;html=1;entryX=1;entryY=0.5;entryDx=0;entryDy=0;" edge="1" parent="1" source="M9ySGyYGYbUEq0l-4iJ8-1" target="M9ySGyYGYbUEq0l-4iJ8-9">
          <mxGeometry relative="1" as="geometry" />
        </mxCell>
        <mxCell id="M9ySGyYGYbUEq0l-4iJ8-1" value="Car Park Service" style="rounded=1;whiteSpace=wrap;html=1;" vertex="1" parent="1">
          <mxGeometry x="490" y="210" width="120" height="60" as="geometry" />
        </mxCell>
        <mxCell id="M9ySGyYGYbUEq0l-4iJ8-2" value="Rest Web Service" style="text;html=1;strokeColor=none;fillColor=none;align=center;verticalAlign=middle;whiteSpace=wrap;rounded=0;" vertex="1" parent="1">
          <mxGeometry x="500" y="280" width="100" height="30" as="geometry" />
        </mxCell>
        <mxCell id="M9ySGyYGYbUEq0l-4iJ8-4" value="GET&lt;br&gt;/getParking" style="shape=process;whiteSpace=wrap;html=1;backgroundOutline=1;" vertex="1" parent="1">
          <mxGeometry x="300" y="150" width="120" height="60" as="geometry" />
        </mxCell>
        <mxCell id="M9ySGyYGYbUEq0l-4iJ8-11" style="edgeStyle=orthogonalEdgeStyle;rounded=0;orthogonalLoop=1;jettySize=auto;html=1;entryX=0;entryY=0.5;entryDx=0;entryDy=0;" edge="1" parent="1" source="M9ySGyYGYbUEq0l-4iJ8-5" target="M9ySGyYGYbUEq0l-4iJ8-4">
          <mxGeometry relative="1" as="geometry" />
        </mxCell>
        <mxCell id="M9ySGyYGYbUEq0l-4iJ8-12" style="edgeStyle=orthogonalEdgeStyle;rounded=0;orthogonalLoop=1;jettySize=auto;html=1;entryX=0;entryY=0.5;entryDx=0;entryDy=0;" edge="1" parent="1" source="M9ySGyYGYbUEq0l-4iJ8-5" target="M9ySGyYGYbUEq0l-4iJ8-7">
          <mxGeometry relative="1" as="geometry" />
        </mxCell>
        <mxCell id="M9ySGyYGYbUEq0l-4iJ8-13" style="edgeStyle=orthogonalEdgeStyle;rounded=0;orthogonalLoop=1;jettySize=auto;html=1;entryX=0;entryY=0.5;entryDx=0;entryDy=0;" edge="1" parent="1" source="M9ySGyYGYbUEq0l-4iJ8-5" target="M9ySGyYGYbUEq0l-4iJ8-9">
          <mxGeometry relative="1" as="geometry" />
        </mxCell>
        <mxCell id="M9ySGyYGYbUEq0l-4iJ8-5" value="Actor" style="shape=umlActor;verticalLabelPosition=bottom;verticalAlign=top;html=1;outlineConnect=0;" vertex="1" parent="1">
          <mxGeometry x="80" y="220" width="30" height="60" as="geometry" />
        </mxCell>
        <mxCell id="M9ySGyYGYbUEq0l-4iJ8-7" value="POST&lt;br&gt;/allocate" style="shape=process;whiteSpace=wrap;html=1;backgroundOutline=1;" vertex="1" parent="1">
          <mxGeometry x="300" y="230" width="120" height="60" as="geometry" />
        </mxCell>
        <mxCell id="M9ySGyYGYbUEq0l-4iJ8-9" value="PUT&lt;br&gt;/release" style="shape=process;whiteSpace=wrap;html=1;backgroundOutline=1;" vertex="1" parent="1">
          <mxGeometry x="300" y="330" width="120" height="60" as="geometry" />
        </mxCell>
      </root>
    </mxGraphModel>
  </diagram>
</mxfile>
